<?xml version="1.0" encoding="utf-8"?><svg xmlns="http://www.w3.org/2000/svg" xmlns:xlink="http://www.w3.org/1999/xlink"><symbol viewBox="0 0 24 25" id="heart" xmlns="http://www.w3.org/2000/svg">
    <path fill-rule="evenodd" clip-rule="evenodd" d="M12.6924 7.58373C12.3055 7.95505 11.6945 7.95505 11.3076 7.58373L10.6152 6.91927C9.80477 6.14154 8.70994 5.66667 7.5 5.66667C5.01472 5.66667 3 7.68139 3 10.1667C3 12.5493 4.28979 14.5167 6.15176 16.1332C8.01532 17.7511 10.2434 18.8241 11.5746 19.3717C11.853 19.4862 12.147 19.4862 12.4254 19.3717C13.7566 18.8241 15.9847 17.7511 17.8482 16.1332C19.7102 14.5167 21 12.5493 21 10.1667C21 7.68139 18.9853 5.66667 16.5 5.66667C15.2901 5.66667 14.1952 6.14154 13.3848 6.91927L12.6924 7.58373ZM12 5.47624C10.8321 4.35548 9.24649 3.66667 7.5 3.66667C3.91015 3.66667 1 6.57682 1 10.1667C1 16.5349 7.97034 20.0517 10.8138 21.2214C11.5796 21.5364 12.4204 21.5364 13.1862 21.2214C16.0297 20.0517 23 16.5349 23 10.1667C23 6.57682 20.0899 3.66667 16.5 3.66667C14.7535 3.66667 13.1679 4.35548 12 5.47624Z"/>
</symbol><symbol viewBox="0 0 24 24" id="heart-line" xmlns="http://www.w3.org/2000/svg">
    <path d="M12.001 4.52853C14.35 2.42 17.98 2.49 20.2426 4.75736C22.5053 7.02472 22.583 10.637 20.4786 12.993L11.9999 21.485L3.52138 12.993C1.41705 10.637 1.49571 7.01901 3.75736 4.75736C6.02157 2.49315 9.64519 2.41687 12.001 4.52853ZM18.827 6.1701C17.3279 4.66794 14.9076 4.60701 13.337 6.01687L12.0019 7.21524L10.6661 6.01781C9.09098 4.60597 6.67506 4.66808 5.17157 6.17157C3.68183 7.66131 3.60704 10.0473 4.97993 11.6232L11.9999 18.6543L19.0201 11.6232C20.3935 10.0467 20.319 7.66525 18.827 6.1701Z"/>
</symbol><symbol viewBox="0 0 24 24" id="id-card-line" xmlns="http://www.w3.org/2000/svg">
    <path d="M3 6H21V18H3V6ZM2 4C1.44772 4 1 4.44772 1 5V19C1 19.5523 1.44772 20 2 20H22C22.5523 20 23 19.5523 23 19V5C23 4.44772 22.5523 4 22 4H2ZM13 8H19V10H13V8ZM18 12H13V14H18V12ZM10.5 10C10.5 11.3807 9.38071 12.5 8 12.5C6.61929 12.5 5.5 11.3807 5.5 10C5.5 8.61929 6.61929 7.5 8 7.5C9.38071 7.5 10.5 8.61929 10.5 10ZM8 13.5C6.067 13.5 4.5 15.067 4.5 17H11.5C11.5 15.067 9.933 13.5 8 13.5Z"/>
</symbol><symbol viewBox="0 0 503 143" id="logo-avtoself" xmlns="http://www.w3.org/2000/svg">
    <path d="M489.855 36.4043H464.423L460.026 56.3226H442.721L454.863 2H502.857L500.18 13.7699H469.395L467.005 24.6344H492.436L489.855 36.4043Z"/>
    <path d="M437.317 56.3226H393.721L405.863 2H423.072L413.607 44.5527H439.994L437.317 56.3226Z"/>
    <path d="M388.715 56.3226H340.721L352.863 2H400.857L398.18 13.7699H367.395L365.196 23.9554H390.628L387.951 35.7253H362.519L360.607 44.5527H391.392L388.715 56.3226Z"/>
    <path d="M303.41 39.3839C303.41 42.8545 306.565 44.5898 312.875 44.5898C319.249 44.5898 322.436 43.0305 322.436 39.912C322.436 38.2521 321.352 36.8941 319.185 35.8378C317.018 34.7815 314.373 33.9013 311.25 33.1971C308.19 32.4929 305.099 31.6882 301.976 30.7828C298.916 29.8271 296.303 28.3685 294.136 26.4068C291.969 24.3949 290.885 21.9051 290.885 18.9375C290.885 6.31249 301.179 0 321.766 0C329.288 0 334.96 1.13172 338.784 3.39516C342.672 5.6083 344.616 8.70167 344.616 12.6753C344.616 14.1339 344.362 15.5423 343.852 16.9004C343.405 18.2081 342.927 19.1386 342.418 19.6919L341.653 20.5973H324.73C326.132 19.4404 326.834 17.9818 326.834 16.2213C326.834 12.9519 324.125 11.3172 318.707 11.3172C311.887 11.3172 308.477 13.0274 308.477 16.4477C308.477 18.1578 309.561 19.5159 311.728 20.5219C313.895 21.5278 316.508 22.3326 319.568 22.9362C322.691 23.4895 325.814 24.1937 328.937 25.0487C332.06 25.9038 334.705 27.3373 336.872 29.3493C339.039 31.3109 340.123 33.8762 340.123 37.045C340.123 43.4329 337.701 48.1861 332.857 51.3047C328.013 54.3729 320.555 55.907 310.485 55.907C300.414 55.907 293.531 54.4986 289.834 51.6819C287.093 49.5694 285.723 46.652 285.723 42.9299C285.723 41.5216 285.914 39.9875 286.296 38.3276L286.583 37.1204H303.792L303.601 38.0258C303.474 38.5288 303.41 38.9815 303.41 39.3839Z"/>
    <path d="M262.193 0C277.554 0 285.234 4.95442 285.234 14.8633C285.234 16.5231 285.011 18.3087 284.565 20.2201L281.219 35.3097C279.689 42.3012 276.374 47.482 271.275 50.852C266.176 54.222 259.006 55.907 249.764 55.907C240.522 55.907 234.084 54.222 230.451 50.852C227.966 48.5382 226.723 45.3443 226.723 41.2701C226.723 39.4593 226.978 37.4725 227.488 35.3097L230.834 20.2201C233.829 6.74002 244.282 0 262.193 0ZM252.345 44.2125C255.532 44.2125 258.082 43.5587 259.994 42.2509C261.906 40.9431 263.244 38.5288 264.009 35.0079L267.26 20.5219C267.451 19.5159 267.547 18.6105 267.547 17.8057C267.547 13.7315 264.934 11.6944 259.707 11.6944C253.142 11.795 249.222 14.7375 247.947 20.5219L244.697 35.0079C244.442 36.2654 244.314 37.5731 244.314 38.9312C244.314 42.4521 246.991 44.2125 252.345 44.2125Z"/>
    <path d="M226.684 17.0117H210.148L201.148 56.3226H180.148L190.148 17.0117H166.184L173.684 2H234.184L226.684 17.0117Z"/>
    <path d="M128.185 43.043L148.418 2.16797H169.184L140.112 56.168H106.035L105.184 2.16797H126.055L125.736 43.043H128.185Z"/>
    <path d="M77.1819 15.293L56.949 56.168H36.1836L65.2551 2.16797H99.3317L100.184 56.168H79.3117H61.2433L66.8102 43.4199H79.6312L79.6312 15.293H77.1819Z"/>
    <path d="M24.9535 76.6497C27.3425 71.9559 32.1637 69 37.4305 69H478.35C488.801 69 495.567 80.0361 490.827 89.3502L467.415 135.35C465.026 140.044 460.204 143 454.938 143H14.0184C3.56735 143 -3.19903 131.964 1.54146 122.65L24.9535 76.6497Z"/>
    <path d="M420.505 132.34L421.888 126.288C417.302 125.877 413.401 124.703 410.186 122.766C406.971 120.806 404.64 118.287 403.194 115.209C401.749 112.132 401.363 108.679 402.035 104.849C402.783 100.723 404.478 97.1446 407.12 94.1129C409.762 91.0584 413.164 88.6992 417.327 87.0351C421.514 85.3483 426.237 84.4935 431.497 84.4707L432.768 79H447.723L446.414 84.7443C451.025 85.1546 454.926 86.3399 458.116 88.3003C461.332 90.2378 463.662 92.7452 465.108 95.8225C466.553 98.8998 466.94 102.353 466.267 106.183C465.544 110.309 463.849 113.899 461.182 116.953C458.54 119.985 455.138 122.344 450.975 124.031C446.813 125.695 442.09 126.538 436.806 126.561L435.46 132.34H420.505ZM424.468 115.107L428.88 95.7199C426.761 95.7883 424.867 96.2328 423.197 97.0534C421.552 97.8512 420.193 98.9796 419.121 100.438C418.075 101.875 417.389 103.573 417.065 105.533C416.741 107.425 416.791 109.043 417.215 110.388C417.663 111.71 418.486 112.77 419.682 113.568C420.904 114.343 422.499 114.856 424.468 115.107ZM439.423 115.312C441.566 115.244 443.461 114.811 445.106 114.013C446.751 113.192 448.097 112.064 449.143 110.628C450.215 109.169 450.913 107.459 451.237 105.499C451.561 103.607 451.499 102 451.05 100.678C450.626 99.3329 449.816 98.273 448.62 97.4979C447.424 96.7001 445.828 96.1758 443.834 95.9251L439.423 115.312Z"/>
    <path d="M341.52 130.561L339.576 117.568C341.271 117.294 342.754 116.907 344.025 116.405C345.296 115.904 346.43 115.174 347.427 114.217C348.424 113.259 349.334 111.983 350.157 110.387C350.979 108.769 351.764 106.729 352.512 104.267C353.285 101.805 354.082 98.8075 354.905 95.2743L357.971 82.0078H399.321L388.254 129.877H373.299L381.45 94.5905H369.262L369.112 95.2743C368.09 99.9017 367.006 104.005 365.859 107.584C364.713 111.139 363.404 114.24 361.934 116.884C360.488 119.505 358.806 121.728 356.886 123.551C354.992 125.375 352.786 126.856 350.269 127.996C347.752 129.136 344.835 129.991 341.52 130.561Z"/>
    <path d="M292.963 129.877L304.03 82.0078H342.837L340.071 93.9067H316.367L314.947 100.13H334.388L331.846 111.003H312.404L310.834 117.841H334.837L332.07 129.877H292.963Z"/>
    <path d="M268.461 130.905C263.551 130.905 259.151 130.084 255.263 128.443C251.4 126.779 248.346 124.374 246.103 121.228C243.86 118.083 242.738 114.287 242.738 109.843C242.738 105.762 243.511 101.978 245.056 98.4907C246.602 94.9803 248.758 91.9258 251.524 89.3272C254.291 86.7059 257.506 84.6657 261.17 83.2069C264.859 81.7252 268.835 80.9844 273.097 80.9844C277.583 80.9844 281.397 81.5542 284.537 82.694C287.678 83.8337 290.594 85.7257 293.286 88.3699L283.715 99.0378C282.593 97.5334 281.048 96.3936 279.079 95.6186C277.11 94.8436 274.891 94.4561 272.424 94.4561C270.305 94.4561 268.411 94.798 266.741 95.4818C265.071 96.1429 263.638 97.0889 262.441 98.3198C261.27 99.5279 260.373 100.953 259.749 102.594C259.126 104.212 258.815 105.99 258.815 107.928C258.815 109.888 259.276 111.586 260.198 113.022C261.12 114.436 262.466 115.53 264.236 116.305C266.031 117.057 268.211 117.433 270.779 117.433C272.623 117.433 274.58 117.194 276.648 116.715C278.742 116.236 280.774 115.45 282.743 114.356L287.005 126.391C284.662 127.759 281.933 128.853 278.817 129.674C275.726 130.495 272.274 130.905 268.461 130.905Z"/>
    <path d="M206.072 130.905C202.159 130.905 198.607 130.358 195.416 129.264C192.251 128.169 189.522 126.631 187.229 124.648C184.96 122.665 183.203 120.339 181.957 117.673C180.736 114.983 180.125 112.054 180.125 108.885C180.125 104.987 180.923 101.351 182.518 97.9779C184.138 94.6042 186.369 91.6409 189.21 89.0879C192.052 86.5349 195.342 84.5518 199.08 83.1385C202.819 81.7024 206.819 80.9844 211.082 80.9844C215.02 80.9844 218.584 81.5542 221.774 82.694C224.965 83.8109 227.694 85.3724 229.962 87.3783C232.255 89.3842 234.012 91.7321 235.234 94.4219C236.48 97.1117 237.103 100.018 237.103 103.141C237.103 106.993 236.293 110.595 234.673 113.946C233.053 117.296 230.822 120.248 227.981 122.801C225.139 125.332 221.837 127.315 218.073 128.751C214.334 130.187 210.334 130.905 206.072 130.905ZM207.343 117.98C209.412 117.98 211.281 117.627 212.951 116.92C214.646 116.191 216.104 115.199 217.325 113.946C218.572 112.669 219.519 111.187 220.167 109.501C220.84 107.791 221.176 105.967 221.176 104.03C221.176 101.956 220.715 100.166 219.793 98.6617C218.871 97.1344 217.562 95.9605 215.867 95.1399C214.172 94.3193 212.178 93.909 209.885 93.909C207.841 93.909 205.972 94.2737 204.277 95.0031C202.582 95.7098 201.112 96.7013 199.865 97.9779C198.644 99.2316 197.697 100.702 197.024 102.389C196.376 104.075 196.052 105.899 196.052 107.859C196.052 109.934 196.513 111.734 197.435 113.262C198.358 114.766 199.666 115.929 201.361 116.749C203.056 117.57 205.05 117.98 207.343 117.98Z"/>
    <path d="M142.452 129.877L150.602 94.5905H137.143L140.059 82.0078H182.157L179.241 94.5905H165.781L157.631 129.877H142.452Z"/>
    <path d="M83.0254 129.877L94.092 82.0078H113.907C119.49 82.0078 123.827 82.9766 126.918 84.9141C130.009 86.8517 131.554 89.5985 131.554 93.1544C131.554 94.9096 131.143 96.4825 130.32 97.873C129.498 99.2634 128.364 100.472 126.918 101.497C125.497 102.523 123.852 103.366 121.983 104.028C124.126 105.053 125.771 106.467 126.918 108.267C128.065 110.068 128.638 112.12 128.638 114.422C128.638 117.659 127.678 120.428 125.759 122.731C123.84 125.033 121.273 126.799 118.057 128.03C114.842 129.261 111.29 129.877 107.402 129.877H83.0254ZM100.373 119.961H106.505C108.449 119.961 109.982 119.448 111.103 118.422C112.225 117.397 112.786 116.086 112.786 114.49C112.786 113.077 112.3 112.017 111.328 111.31C110.355 110.604 108.897 110.25 106.953 110.25H102.691L100.373 119.961ZM104.785 101.087H111.215C112.287 101.087 113.209 100.836 113.982 100.335C114.78 99.8333 115.39 99.195 115.814 98.42C116.238 97.6222 116.45 96.7788 116.45 95.8898C116.45 94.5449 115.964 93.5533 114.991 92.9151C114.019 92.254 112.536 91.9235 110.542 91.9235H106.953L104.785 101.087Z"/>
    <path d="M21.1836 129.877L51.6916 82.0078H69.5627L77.2644 129.877H60.5897L59.6177 121.329H43.4664L38.5313 129.877H21.1836ZM49.2988 109.909H59.0942L57.3744 96.5737L49.2988 109.909Z"/>
</symbol><symbol viewBox="0 0 24 24" id="search" xmlns="http://www.w3.org/2000/svg">
    <path d="M18.5 18.5L22 22M21 11.5C21 6.25329 16.7467 2 11.5 2C6.25329 2 2 6.25329 2 11.5C2 16.7467 6.25329 21 11.5 21C16.7467 21 21 16.7467 21 11.5Z" stroke-width="1.5" stroke-linecap="round" stroke-linejoin="round"/>
</symbol><symbol viewBox="0 0 24 24" id="search-line" xmlns="http://www.w3.org/2000/svg">
    <path d="M18.031 16.6168L22.3137 20.8995L20.8995 22.3137L16.6168 18.031C15.0769 19.263 13.124 20 11 20C6.032 20 2 15.968 2 11C2 6.032 6.032 2 11 2C15.968 2 20 6.032 20 11C20 13.124 19.263 15.0769 18.031 16.6168ZM16.0247 15.8748C17.2475 14.6146 18 12.8956 18 11C18 7.1325 14.8675 4 11 4C7.1325 4 4 7.1325 4 11C4 14.8675 7.1325 18 11 18C12.8956 18 14.6146 17.2475 15.8748 16.0247L16.0247 15.8748Z"/>
</symbol><symbol viewBox="0 0 24 24" id="user" xmlns="http://www.w3.org/2000/svg">
    <path d="M18.5588 19.5488C17.5654 16.8918 15.0036 15 12 15C8.99638 15 6.4346 16.8918 5.44117 19.5488M18.5588 19.5488C20.6672 17.7154 22 15.0134 22 12C22 6.47715 17.5228 2 12 2C6.47715 2 2 6.47715 2 12C2 15.0134 3.33285 17.7154 5.44117 19.5488M18.5588 19.5488C16.8031 21.0756 14.5095 22 12 22C9.49052 22 7.19694 21.0756 5.44117 19.5488M15 9C15 10.6569 13.6569 12 12 12C10.3431 12 9 10.6569 9 9C9 7.34315 10.3431 6 12 6C13.6569 6 15 7.34315 15 9Z" stroke-width="1.5" stroke-linejoin="round"/>
</symbol><symbol viewBox="0 0 24 24" id="user-star-line" xmlns="http://www.w3.org/2000/svg">
    <path d="M12 14V16C8.68629 16 6 18.6863 6 22H4C4 17.5817 7.58172 14 12 14ZM12 13C8.685 13 6 10.315 6 7C6 3.685 8.685 1 12 1C15.315 1 18 3.685 18 7C18 10.315 15.315 13 12 13ZM12 11C14.21 11 16 9.21 16 7C16 4.79 14.21 3 12 3C9.79 3 8 4.79 8 7C8 9.21 9.79 11 12 11ZM18 21.5L15.0611 23.0451L15.6224 19.7725L13.2447 17.4549L16.5305 16.9775L18 14L19.4695 16.9775L22.7553 17.4549L20.3776 19.7725L20.9389 23.0451L18 21.5Z"/>
</symbol><symbol id="website" enable-background="new 0 0 497 497" viewBox="0 0 497 497" xmlns="http://www.w3.org/2000/svg">
    <g>
        <path d="m497 128.5v312c0 11.046-8.954 20-20 20h-457c-11.046 0-20-8.954-20-20v-312z"/>
        <g>
            <path d="m290.498 294.5c0-23.196-18.804-42-42-42-7.031 0-13.659 1.728-19.482 4.782-13.386 7.021-19.327 21.053-19.327 37.218 0 23.196 15.613 36.457 38.809 36.457 16.214 0 30.282-3.645 37.282-17.099 3.014-5.792 4.718-12.376 4.718-19.358z"/>
            <path d="m286.468 312.47c-6.73 14.21-21.2 24.03-37.97 24.03-23.2 0-42-18.8-42-42 0-16.77 9.82-31.24 24.03-37.97-2.59 5.45-4.03 11.54-4.03 17.97 0 23.2 18.8 42 42 42 6.43 0 12.52-1.44 17.97-4.03z"/>
        </g>
        <g>
            <path d="m429.496 294.5c0-23.196-18.804-42-42-42-7.031 0-13.659 1.728-19.482 4.782-13.386 7.021-19.327 21.053-19.327 37.218 0 23.196 15.613 36.457 38.809 36.457 16.214 0 30.282-3.645 37.282-17.099 3.014-5.792 4.718-12.376 4.718-19.358z"/>
            <path d="m425.466 312.47c-6.73 14.21-21.2 24.03-37.97 24.03-23.2 0-42-18.8-42-42 0-16.77 9.82-31.24 24.03-37.97-2.59 5.45-4.03 11.54-4.03 17.97 0 23.2 18.8 42 42 42 6.43 0 12.52-1.44 17.97-4.03z"/>
        </g>
        <path d="m497 148.5v-20l-276.011-12.798-220.989 12.798v20 292c0 11.046 8.954 20 20 20h15c-8.28 0-15-6.72-15-15v-291c0-3.314 2.686-6 6-6z"/>
        <g>
            <path d="m497 56.5v72.5h-497v-72.5c0-11.046 8.954-20 20-20h457c11.046 0 20 8.954 20 20z"/>
            <g>
                <path d="m227.758 108.5c-8.255 0-14.947-6.716-14.947-15s6.692-15 14.947-15h208.315c8.255 0 14.947 6.716 14.947 15s-6.692 15-14.947 15z"/>
                <ellipse cx="160.869" cy="93.5" rx="14.947" ry="15"/>
                <path d="m171.361 104.184 12.874-12.869-13.139 1.179z"/>
                <path d="m150.592 82.608 12.562-12.516-2.693 10.408z"/>
                <ellipse cx="98.034" cy="93.5" rx="14.947" ry="15"/>
                <path d="m108.553 104.157 12.382-12.499-12.674.836z"/>
                <path d="m87.757 82.608 12.371-12.459-2.502 10.351z"/>
                <ellipse cx="32.947" cy="93.5" rx="14.947" ry="15"/>
                <path d="m43.769 103.846 12.721-13.186-13.139 1.381z"/>
                <path d="m22.67 82.608 11.622-12.038-1.753 9.93z"/>
            </g>
            <ellipse cx="173.849" cy="80.5" rx="14.947" ry="15"/>
            <path d="m217.514 82.577 12.971-12.991-3.025 14.276z"/>
            <path d="m446.83 103.915 13.149-13.179-10.185 3.381z"/>
            <ellipse cx="110.946" cy="80.5" rx="14.947" ry="15"/>
            <ellipse cx="45.495" cy="80.5" rx="14.947" ry="15"/>
            <path d="m240.737 95.5c-8.255 0-14.947-6.716-14.947-15s6.692-15 14.947-15h208.315c8.255 0 14.947 6.716 14.947 15s-6.692 15-14.947 15z"/>
        </g>
        <path d="m135.893 215 226.628 2c5.523 0 10-4.477 10-10l3.479-7v-30c0-5.523-4.477-10-10-10h-224l-6.107 5c-5.523 0-10 4.477-10 10v30c0 5.523 4.477 10 10 10z"/>
        <path d="m376 200v10c0 5.523-4.477 10-10 10h-234c-5.523 0-10-4.477-10-10v-40c0-5.523 4.477-10 10-10h10v33c0 3.866 3.134 7 7 7z"/>
        <g>
            <path d="m151.5 294.5c0-23.196-18.804-42-42-42-7.031 0-13.659 1.728-19.482 4.782-13.386 7.021-19.327 21.053-19.327 37.218 0 23.196 15.613 36.457 38.809 36.457 16.214 0 30.282-3.645 37.282-17.099 3.014-5.792 4.718-12.376 4.718-19.358z"/>
            <path d="m147.47 312.47c-6.73 14.21-21.2 24.03-37.97 24.03-23.2 0-42-18.8-42-42 0-16.77 9.82-31.24 24.03-37.97-2.59 5.45-4.03 11.54-4.03 17.97 0 23.2 18.8 42 42 42 6.43 0 12.52-1.44 17.97-4.03z"/>
        </g>
        <g>
            <g>
                <path d="m149.5 374h-70c-4.142 0-7.5-3.358-7.5-7.5s3.358-7.5 7.5-7.5h70c4.142 0 7.5 3.358 7.5 7.5s-3.358 7.5-7.5 7.5z"/>
            </g>
            <g>
                <path d="m149.5 404h-80c-4.142 0-7.5-3.358-7.5-7.5s3.358-7.5 7.5-7.5h80c4.142 0 7.5 3.358 7.5 7.5s-3.358 7.5-7.5 7.5z"/>
            </g>
            <g>
                <path d="m149.5 434h-80c-4.142 0-7.5-3.358-7.5-7.5s3.358-7.5 7.5-7.5h80c4.142 0 7.5 3.358 7.5 7.5s-3.358 7.5-7.5 7.5z"/>
            </g>
        </g>
        <g>
            <g>
                <path d="m288.5 374h-70c-4.142 0-7.5-3.358-7.5-7.5s3.358-7.5 7.5-7.5h70c4.143 0 7.5 3.358 7.5 7.5s-3.357 7.5-7.5 7.5z"/>
            </g>
            <g>
                <path d="m288.5 404h-80c-4.142 0-7.5-3.358-7.5-7.5s3.358-7.5 7.5-7.5h80c4.143 0 7.5 3.358 7.5 7.5s-3.357 7.5-7.5 7.5z"/>
            </g>
            <g>
                <path d="m288.5 434h-80c-4.142 0-7.5-3.358-7.5-7.5s3.358-7.5 7.5-7.5h80c4.143 0 7.5 3.358 7.5 7.5s-3.357 7.5-7.5 7.5z"/>
            </g>
        </g>
        <g>
            <g>
                <path d="m427.5 374h-70c-4.143 0-7.5-3.358-7.5-7.5s3.357-7.5 7.5-7.5h70c4.143 0 7.5 3.358 7.5 7.5s-3.357 7.5-7.5 7.5z"/>
            </g>
            <g>
                <path d="m427.5 404h-80c-4.143 0-7.5-3.358-7.5-7.5s3.357-7.5 7.5-7.5h80c4.143 0 7.5 3.358 7.5 7.5s-3.357 7.5-7.5 7.5z"/>
            </g>
            <g>
                <path d="m427.5 434h-80c-4.143 0-7.5-3.358-7.5-7.5s3.357-7.5 7.5-7.5h80c4.143 0 7.5 3.358 7.5 7.5s-3.357 7.5-7.5 7.5z"/>
            </g>
        </g>
    </g>
</symbol></svg>